<svg xmlns="http://www.w3.org/2000/svg" width="290" height="90" viewBox="0 0 290 90"><path fill="#FFF" d="M22.4 32.5c-2.9 0-3.8.4-3.8 2.7V54c0 .9.3 6.8 1.3 7.9 1.2 1.3 4.5 2 7.9 2 8 0 13.9-5.5 13.9-14.6-.1-9.4-7.9-16.8-19.3-16.8m3.4-29.3c-6.9 0-7.2.9-7.2 3V29c0 1.7 1.4 1.5 3.9 1.5 6.4 0 10.8.6 10.8.6 3-2.3 6.5-4.3 6.5-12.6 0-5.2-4.4-15.3-14-15.3m1.4 62.6c-4.4 0-8.8-1-13.4-1-4.4 0-6.7.4-10.1.4-1.1 0-1.8-.1-1.8-1.2 0-1.1.6-1.3 2.9-1.3 4.7 0 4.9-.2 4.9-1.8V12.7c0-8.3-1.7-9.2-4.6-9.2C.4 3.4 0 3.3 0 2c0-.7.3-.8 2.1-.8 3.3 0 6.5.1 10.2.1 2.2 0 7.2-.6 16.7-.6 13.7 0 19.5 7 19.5 14.5S44 26.3 40.6 28.6c-2 1.4-4.3 2.5-4.3 2.8 0 .2 2 .7 4.1 1.8 4.9 2.5 11.1 6.1 11.1 15.2.1 11.8-9.7 17.4-24.3 17.4m43.8-37c-6.9 0-9.1 10.4-9.1 11.7 0 .5 0 .5 1.1.5 4.8 0 9.7-1.2 16.5-2.3 1-.2 1.1-.4 1.1-.9 0-2.3-5.4-9-9.6-9m14 10.9c-2.4.5-11.5 2.6-21.9 3.2-1.5.1-1.7.5-1.7 2.6 0 12.6 9.8 16 16.7 16 6 0 9.3-2.2 9.9-2.2.5 0 .7.5.7.7 0 .5-7.8 6.2-15.2 6.2-7.5 0-18.6-3.7-18.6-18.9 0-12.9 8.7-20.6 17-20.6 4.8 0 10.6 3 13.9 6.9 1.6 1.8 3 4 3 4.7 0 .5-1.3.9-3.8 1.4m33.5-2.5c-1.3 0-2.4-3.7-6.9-3.7-5.3 0-7.3 2.2-7.3 6v18.8c0 4.5.3 4.5 7 4.5 2.4 0 2.5.3 2.5 1.1 0 1-.1.9-2.5.9-1.3 0-7.4-.5-10.3-.5-3.1 0-6.2.5-7.5.5-2.1 0-2.3 0-2.3-.9s.1-1.1 2.3-1.1c3.7 0 4-.1 4-1.4v-25c0-6.2.2-6.4-4.9-6.4-1.6 0-1.6.1-1.6-.9 0-1.1-.1-1.4 1.5-1.4 3.1 0 4.8.2 6.7.2 1.5 0 3.2-.5 4.7-.5.4 0 .7.3.7 1 0 .5-.2 2.5-.2 2.7 0 .8.1 1.5.5 1.5 1.4 0 5.7-4.8 10-4.8 1.6 0 5.8 2 5.8 4.4-.2 1-1.7 5-2.2 5"/><path fill="#FFF" d="M161.7 65.2c-1.1 0-2.3-.1-3.1-.1-1.1 0-3.8.1-5.1.1-1.6 0-2.5-2.3-6.3-6.7s-7.7-10.1-8.2-10.1c-.4 0-1.6.9-3.2 1.9-1.5.9-2.7 1.6-2.7 2.4v5.8c0 4.3-.2 4.3 5.5 4.3 2.1 0 2.5.5 2.5 1.2 0 .9-.5.9-2.5.9-1.4 0-5.6-.2-8.5-.2-3.1 0-6.5.2-7.8.2-2.1 0-2.6-.1-2.6-.9 0-.7.5-1.2 2.6-1.2 3.1 0 3.9 0 3.9-1.4 0-2.6.3-29.7.3-49 0-6.5-.7-7.3-3.2-7.3-3.7 0-4.1-.3-4.1-.9 0-.9.2-1.3 1.2-1.3 6.6 0 12-2 12.8-2 .5 0 .6.3.6.8 0 1.2-.2 5-.2 7.9 0 13.9-.5 24.1-.5 39 0 .4.1.6.4.6 2.3 0 11.8-8.4 14.7-11.1 3.6-3.4 4.4-4.9 4.4-6.8 0-1.5-.3-1.6-4.3-1.6-1.4 0-1.8-.2-1.8-1 0-.7.5-.9 1.6-.9.9 0 2.6.3 3.7.3 1.2 0 6.5-.3 7.6-.3.7 0 1.1.1 1.1.4 0 .8-3.1 4.8-5.9 7.5-4.6 4.5-10.2 8.5-10.2 9.1 0 .8 1.6 2.6 8 10.2 3.1 3.7 6 8.2 9.1 8.2 2.2 0 2.9.5 2.9 1.2-.1.6-.7.8-2.7.8"/><path fill="#FFF" d="M177.5 28.8c-6.9 0-9.1 10.4-9.1 11.7 0 .5 0 .5 1.1.5 4.7 0 9.7-1.2 16.5-2.3 1-.2 1.1-.4 1.1-.9 0-2.3-5.4-9-9.6-9m14.1 10.9c-2.4.5-11.5 2.6-21.9 3.2-1.5.1-1.7.5-1.7 2.6 0 12.6 9.8 16 16.7 16 6 0 9.3-2.2 9.9-2.2.5 0 .7.5.7.7 0 .5-7.8 6.2-15.2 6.2-7.5 0-18.6-3.7-18.6-18.9 0-12.9 8.7-20.6 17-20.6 4.8 0 10.6 3 13.9 6.9 1.6 1.8 3 4 3 4.7-.1.5-1.4.9-3.8 1.4"/><path fill="#FFF" d="M211.7 64.8c-1.4 0-3.4-.2-5-.2-3.1 0-7.9.2-9.2.2-2.1 0-2.3-.2-2.3-.9 0-.6.1-1.2 2.3-1.2 3.7 0 5.3.1 5.3-1.6V10.9c0-5.8-.5-5.8-4.7-5.8-1.6 0-2.6-.2-2.6-1.2 0-1.1.7-1 2.3-1.1 7.1-.5 10.6-2 11.1-2s.9.5.9 1.5c0 1.1-.5 4.4-.5 7.1 0 34.8-.5 42-.5 44.7 0 7.6.6 8.6 2.3 8.6 4.6 0 4.4.5 4.4 1.3.1.8-.5.8-3.8.8"/><path fill="#FFF" d="M230.2 28.8c-6.9 0-9.1 10.4-9.1 11.7 0 .5 0 .5 1.1.5 4.8 0 9.7-1.2 16.5-2.3 1-.2 1.1-.4 1.1-.9 0-2.3-5.4-9-9.6-9m14 10.9c-2.4.5-11.5 2.6-21.9 3.2-1.5.1-1.7.5-1.7 2.6 0 12.6 9.8 16 16.7 16 6 0 9.3-2.2 9.9-2.2.5 0 .7.5.7.7 0 .5-7.8 6.2-15.2 6.2-7.5 0-18.6-3.7-18.6-18.9 0-12.9 8.7-20.6 17-20.6 4.8 0 10.6 3 13.9 6.9 1.6 1.8 3 4 3 4.7 0 .5-1.3.9-3.8 1.4"/><path fill="#FFF" d="M285.6 29.9c-2 0-6 11-13.2 28.5-5.8 14-9.9 21.4-12.8 27.4-1 2-2.1 2.1-4.1 2.4-2.7.4-3.4 1.1-5.4 1.1-1.6 0-2.5-.5-2.5-.9 0-.5 4.3-1.1 7.4-5 3.3-4.1 11.1-14.9 11.1-17.6 0-1-7.3-17.9-12.3-29.8-2.3-5.5-2.9-5.9-4.6-5.9-1.8 0-1.9-.1-1.9-.9s.3-1.3 1.9-1.3c2.6 0 3.2.2 5.4.2 2.6 0 5.8-.3 8.7-.3 1.9 0 2.3.4 2.3 1.4 0 .8-.4.9-2.3.9-2.2 0-2.7.5-2.7 2.6 0 2.6 2.4 5.8 7.9 19.9.7 1.9 1.8 3.5 2.2 3.5.6 0 1.2-1.3 2.6-5.6 2.2-6.6 5.5-16.1 5.5-17.4 0-2.7 0-3.3-3.1-3.3-2.8 0-3.2 0-3.2-.9 0-1.2.3-1.2 1.9-1.2 2.5 0 4.1.2 6.6.2 1.4 0 3.8-.4 5.1-.4 1.5 0 1.9.1 1.9 1.1 0 .9-1.3 1.3-2.4 1.3"/></svg>