<?xml version="1.0" encoding="utf-8"?>
<!-- Generator: Adobe Illustrator 18.1.1, SVG Export Plug-In . SVG Version: 6.00 Build 0)  -->
<svg version="1.1" id="Layer_1" xmlns="http://www.w3.org/2000/svg" xmlns:xlink="http://www.w3.org/1999/xlink" x="0px" y="0px"
	 width="145px" height="41px" viewBox="0 0 145 41" enable-background="new 0 0 145 41" xml:space="preserve">
<g>
	<path fill="#003262" d="M26.3,15.7c-1.1,0-1.4,0.2-1.4,1v7.1c0,0.3,0.1,2.6,0.5,3c0.5,0.5,1.7,0.8,3,0.8c3,0,5.3-2.1,5.3-5.6
		C33.6,18.6,30.6,15.7,26.3,15.7 M27.6,4.6c-2.6,0-2.7,0.3-2.7,1.1v8.7c0,0.6,0.5,0.6,1.5,0.6c2.4,0,4.1,0.2,4.1,0.2
		c1.1-0.9,2.5-1.6,2.5-4.8C32.9,8.4,31.2,4.6,27.6,4.6 M28.1,28.4c-1.7,0-3.3-0.4-5.1-0.4c-1.7,0-2.5,0.2-3.8,0.2
		c-0.4,0-0.7,0-0.7-0.5s0.2-0.5,1.1-0.5c1.8,0,1.9-0.1,1.9-0.7V8.2c0-3.2-0.6-3.5-1.7-3.5c-1.8,0-1.9-0.1-1.9-0.6
		c0-0.3,0.1-0.3,0.8-0.3c1.3,0,2.5,0,3.9,0c0.8,0,2.7-0.2,6.4-0.2c5.2,0,7.4,2.7,7.4,5.5s-1.7,4.2-3,5.1c-0.8,0.5-1.6,1-1.6,1.1
		c0,0.1,0.8,0.3,1.6,0.7c1.9,1,4.2,2.3,4.2,5.8C37.4,26.3,33.6,28.4,28.1,28.4 M44.7,14.3c-2.6,0-3.5,4-3.5,4.4c0,0.2,0,0.2,0.4,0.2
		c1.8,0,3.7-0.5,6.3-0.9c0.4-0.1,0.4-0.2,0.4-0.3C48.4,16.9,46.3,14.3,44.7,14.3 M50.1,18.5c-0.9,0.2-4.4,1-8.3,1.2
		c-0.6,0-0.6,0.2-0.6,1c0,4.8,3.7,6.1,6.4,6.1c2.3,0,3.5-0.8,3.8-0.8c0.2,0,0.3,0.2,0.3,0.3c0,0.2-3,2.4-5.8,2.4
		c-2.9,0-7.1-1.4-7.1-7.2c0-4.9,3.3-7.8,6.5-7.8c1.8,0,4,1.1,5.3,2.6c0.6,0.7,1.1,1.5,1.1,1.8C51.5,18.1,51,18.3,50.1,18.5
		 M62.8,17.5c-0.5,0-0.9-1.4-2.6-1.4c-2,0-2.8,0.8-2.8,2.3v7.1c0,1.7,0.1,1.7,2.7,1.7c0.9,0,1,0.1,1,0.4c0,0.4,0,0.3-1,0.3
		c-0.5,0-2.8-0.2-3.9-0.2c-1.2,0-2.4,0.2-2.9,0.2c-0.8,0-0.9,0-0.9-0.3c0-0.3,0-0.4,0.9-0.4c1.4,0,1.5,0,1.5-0.5v-9.5
		c0-2.4,0.1-2.4-1.9-2.4c-0.6,0-0.6,0-0.6-0.3c0-0.4,0-0.5,0.6-0.5c1.2,0,1.8,0.1,2.5,0.1c0.6,0,1.2-0.2,1.8-0.2
		c0.2,0,0.3,0.1,0.3,0.4c0,0.2-0.1,1-0.1,1c0,0.3,0,0.6,0.2,0.6c0.5,0,2.2-1.8,3.8-1.8c0.6,0,2.2,0.8,2.2,1.7
		C63.6,16,63,17.5,62.8,17.5"/>
	<path fill="#003262" d="M79.2,28.2c-0.4,0-0.9,0-1.2,0c-0.4,0-1.4,0-1.9,0c-0.6,0-1-0.9-2.4-2.5c-1.4-1.7-2.9-3.8-3.1-3.8
		c-0.2,0-0.6,0.3-1.2,0.7c-0.6,0.3-1,0.6-1,0.9v2.2c0,1.6-0.1,1.6,2.1,1.6c0.8,0,1,0.2,1,0.5c0,0.3-0.2,0.3-1,0.3
		c-0.5,0-2.1-0.1-3.2-0.1c-1.2,0-2.5,0.1-3,0.1c-0.8,0-1,0-1-0.3c0-0.3,0.2-0.5,1-0.5c1.2,0,1.5,0,1.5-0.5c0-1,0.1-11.3,0.1-18.6
		c0-2.5-0.3-2.8-1.2-2.8c-1.4,0-1.6-0.1-1.6-0.3c0-0.3,0.1-0.5,0.5-0.5c2.5,0,4.6-0.8,4.9-0.8c0.2,0,0.2,0.1,0.2,0.3
		c0,0.5-0.1,1.9-0.1,3c0,5.3-0.2,9.2-0.2,14.8c0,0.2,0,0.2,0.2,0.2c0.9,0,4.5-3.2,5.6-4.2c1.4-1.3,1.7-1.9,1.7-2.6
		c0-0.6-0.1-0.6-1.6-0.6c-0.5,0-0.7-0.1-0.7-0.4c0-0.3,0.2-0.3,0.6-0.3c0.3,0,1,0.1,1.4,0.1c0.5,0,2.5-0.1,2.9-0.1
		c0.3,0,0.4,0,0.4,0.2c0,0.3-1.2,1.8-2.2,2.9c-1.7,1.7-3.9,3.2-3.9,3.5c0,0.3,0.6,1,3,3.9c1.2,1.4,2.3,3.1,3.5,3.1
		c0.8,0,1.1,0.2,1.1,0.5C80.2,28.1,80,28.2,79.2,28.2"/>
	<path fill="#003262" d="M85.2,14.3c-2.6,0-3.5,4-3.5,4.4c0,0.2,0,0.2,0.4,0.2c1.8,0,3.7-0.5,6.3-0.9c0.4-0.1,0.4-0.2,0.4-0.3
		C88.9,16.9,86.8,14.3,85.2,14.3 M90.6,18.5c-0.9,0.2-4.4,1-8.3,1.2c-0.6,0-0.6,0.2-0.6,1c0,4.8,3.7,6.1,6.4,6.1
		c2.3,0,3.5-0.8,3.8-0.8c0.2,0,0.3,0.2,0.3,0.3c0,0.2-3,2.4-5.8,2.4c-2.9,0-7.1-1.4-7.1-7.2c0-4.9,3.3-7.8,6.5-7.8
		c1.8,0,4,1.1,5.3,2.6c0.6,0.7,1.1,1.5,1.1,1.8C92,18.1,91.5,18.3,90.6,18.5"/>
	<path fill="#003262" d="M98.2,28C97.7,28,97,28,96.3,28c-1.2,0-3,0.1-3.5,0.1C92,28,92,28,92,27.7c0-0.2,0-0.5,0.9-0.5
		c1.4,0,2,0,2-0.6V7.5c0-2.2-0.2-2.2-1.8-2.2c-0.6,0-1-0.1-1-0.5c0-0.4,0.3-0.4,0.9-0.4c2.7-0.2,4-0.8,4.2-0.8
		c0.2,0,0.3,0.2,0.3,0.6c0,0.4-0.2,1.7-0.2,2.7c0,13.2-0.2,16-0.2,17c0,2.9,0.2,3.3,0.9,3.3c1.7,0,1.7,0.2,1.7,0.5
		C99.7,28,99.5,28,98.2,28"/>
	<path fill="#003262" d="M105.3,14.3c-2.6,0-3.5,4-3.5,4.4c0,0.2,0,0.2,0.4,0.2c1.8,0,3.7-0.5,6.3-0.9c0.4-0.1,0.4-0.2,0.4-0.3
		C108.9,16.9,106.9,14.3,105.3,14.3 M110.6,18.5c-0.9,0.2-4.4,1-8.3,1.2c-0.6,0-0.6,0.2-0.6,1c0,4.8,3.7,6.1,6.4,6.1
		c2.3,0,3.5-0.8,3.8-0.8c0.2,0,0.3,0.2,0.3,0.3c0,0.2-3,2.4-5.8,2.4c-2.9,0-7.1-1.4-7.1-7.2c0-4.9,3.3-7.8,6.5-7.8
		c1.8,0,4,1.1,5.3,2.6c0.6,0.7,1.1,1.5,1.1,1.8C112,18.1,111.6,18.3,110.6,18.5"/>
	<path fill="#003262" d="M126.3,14.8c-0.8,0-2.3,4.2-5,10.8c-2.2,5.3-3.8,8.1-4.9,10.4c-0.4,0.8-0.8,0.8-1.6,0.9
		c-1,0.2-1.3,0.4-2.1,0.4c-0.6,0-1-0.2-1-0.3c0-0.2,1.6-0.4,2.8-1.9c1.3-1.6,4.2-5.7,4.2-6.7c0-0.4-2.8-6.8-4.7-11.3
		c-0.9-2.1-1.1-2.2-1.7-2.2c-0.7,0-0.7,0-0.7-0.3s0.1-0.5,0.7-0.5c1,0,1.2,0.1,2.1,0.1c1,0,2.2-0.1,3.3-0.1c0.7,0,0.9,0.2,0.9,0.5
		c0,0.3-0.2,0.3-0.9,0.3c-0.8,0-1,0.2-1,1c0,1,0.9,2.2,3,7.6c0.3,0.7,0.7,1.3,0.8,1.3c0.2,0,0.5-0.5,1-2.1c0.8-2.5,2.1-6.1,2.1-6.6
		c0-1,0-1.3-1.2-1.3c-1.1,0-1.2,0-1.2-0.3c0-0.5,0.1-0.5,0.7-0.5c1,0,1.6,0.1,2.5,0.1c0.5,0,1.4-0.2,1.9-0.2c0.6,0,0.7,0,0.7,0.4
		C127.3,14.6,126.8,14.8,126.3,14.8"/>
</g>
</svg>
