<svg xmlns="http://www.w3.org/2000/svg" width="1536" height="1536" viewBox="774 -518 1536 1536"><path fill="#108643" d="M2058 88c0-18.7-6-34-18-46l-91-90c-12.7-12.7-27.7-19-45-19s-32.3 6.3-45 19l-408 407-226-226c-12.7-12.7-27.7-19-45-19s-32.3 6.3-45 19l-91 90c-12 12-18 27.3-18 46 0 18 6 33 18 45l362 362c12.7 12.7 27.7 19 45 19 18 0 33.3-6.3 46-19l543-543c12-12 18-27 18-45zm252 162c0 139.3-34.3 267.8-103 385.5S2045.2 846.3 1927.5 915s-246.2 103-385.5 103-267.8-34.3-385.5-103C1038.8 846.3 945.7 753.2 877 635.5S774 389.3 774 250s34.3-267.8 103-385.5 161.8-210.8 279.5-279.5c117.7-68.7 246.2-103 385.5-103s267.8 34.3 385.5 103 210.8 161.8 279.5 279.5 103 246.2 103 385.5z"/></svg>