<svg xmlns="http://www.w3.org/2000/svg" width="1794" height="1664" viewBox="645 -646 1794 1664"><path fill="#F1A91E" d="M1670 729V539c0-9.3-3.2-17.2-9.5-23.5-6.3-6.3-13.8-9.5-22.5-9.5h-192c-8.7 0-16.2 3.2-22.5 9.5-6.3 6.3-9.5 14.2-9.5 23.5v190c0 9.3 3.2 17.2 9.5 23.5 6.3 6.3 13.8 9.5 22.5 9.5h192c8.7 0 16.2-3.2 22.5-9.5 6.3-6.3 9.5-14.2 9.5-23.5zm-2-374l18-459c0-8-3.3-14.3-10-19-8.7-7.3-16.7-11-24-11h-220c-7.3 0-15.3 3.7-24 11-6.7 4.7-10 11.7-10 21l17 457c0 6.7 3.3 12.2 10 16.5 6.7 4.3 14.7 6.5 24 6.5h185c9.3 0 17.2-2.2 23.5-6.5 6.3-4.3 9.8-9.8 10.5-16.5zm-14-934l768 1408c23.3 42 22.7 84-2 126-11.3 19.3-26.8 34.7-46.5 46-19.7 11.3-40.8 17-63.5 17H774c-22.7 0-43.8-5.7-63.5-17-19.7-11.3-35.2-26.7-46.5-46-24.7-42-25.3-84-2-126l768-1408c11.3-20.7 27-37 47-49s41.7-18 65-18c23.3 0 45 6 65 18s35.7 28.3 47 49z"/></svg>