<svg xmlns="http://www.w3.org/2000/svg" width="1536" height="1536" viewBox="774 -518 1536 1536"><path fill="#FF3037" d="M1542-518c139.3 0 267.8 34.3 385.5 103s210.8 161.8 279.5 279.5 103 246.2 103 385.5-34.3 267.8-103 385.5-161.8 210.8-279.5 279.5-246.2 103-385.5 103-267.8-34.3-385.5-103C1038.8 846.3 945.7 753.2 877 635.5S774 389.3 774 250s34.3-267.8 103-385.5 161.8-210.8 279.5-279.5c117.7-68.7 246.2-103 385.5-103zm128 1247V539c0-9.3-3-17.2-9-23.5s-13.3-9.5-22-9.5h-192c-8.7 0-16.3 3.3-23 10s-10 14.3-10 23v190c0 8.7 3.3 16.3 10 23s14.3 10 23 10h192c8.7 0 16-3.2 22-9.5s9-14.2 9-23.5zm-2-344l18-621c0-8-3.3-14-10-18-6.7-5.3-14.7-8-24-8h-220c-9.3 0-17.3 2.7-24 8-6.7 4-10 10-10 18l17 621c0 6.7 3.3 12.5 10 17.5s14.7 7.5 24 7.5h185c9.3 0 17.2-2.5 23.5-7.5s9.8-10.8 10.5-17.5z"/></svg>